<svg width="44" height="44" xmlns="http://www.w3.org/2000/svg" xmlns:xlink="http://www.w3.org/1999/xlink" overflow="hidden"><defs><clipPath id="clip0"><rect x="24" y="301" width="44" height="44"/></clipPath><clipPath id="clip1"><rect x="25" y="302" width="43" height="43"/></clipPath><clipPath id="clip2"><rect x="25" y="302" width="43" height="43"/></clipPath><clipPath id="clip3"><rect x="25" y="302" width="43" height="43"/></clipPath></defs><g clip-path="url(#clip0)" transform="translate(-24 -301)"><g clip-path="url(#clip1)"><g clip-path="url(#clip2)"><g clip-path="url(#clip3)"><path d="M61.2812 324.844 58.1906 319.469 58.1906 319.245C58.4594 311.809 52.6365 305.583 45.201 305.315 37.7656 305.046 31.5396 310.824 31.2708 318.259 31.2708 318.573 31.2708 318.931 31.2708 319.245 31.2708 323.5 33.1969 327.486 36.5562 330.084L36.5562 341.417 50.7104 341.417 50.7104 336.042 52.9052 336.042C55.8167 336.042 58.1906 333.668 58.1906 330.756 58.1906 330.711 58.1906 330.711 58.1906 330.667L58.1906 327.979 60.1615 327.979C61.326 327.845 62.3563 326.501 61.2812 324.844ZM33.2865 314.766 35.75 314.766 35.75 312.974C35.2573 312.616 35.1677 311.899 35.526 311.406 35.8844 310.914 36.601 310.824 37.0938 311.182 37.5865 311.541 37.676 312.257 37.3177 312.75 37.2729 312.84 37.1833 312.929 37.0938 312.974L37.0938 314.766 38.8854 314.766 38.8854 317.901C39.3781 318.259 39.4677 318.976 39.1094 319.469 38.751 319.961 38.0344 320.051 37.5417 319.693 37.049 319.334 36.9594 318.618 37.3177 318.125 37.3625 318.035 37.4521 317.946 37.5417 317.901L37.5417 316.109 32.8833 316.109C33.0177 315.661 33.1073 315.214 33.2865 314.766ZM45.7385 322.335C45.1115 322.335 44.6187 321.843 44.6187 321.216 44.6187 321.171 44.6187 321.081 44.6187 321.036L43.4542 319.872 41.5729 321.753 41.5729 325.068C42.0656 325.426 42.1552 326.143 41.7969 326.635 41.4385 327.128 40.7219 327.218 40.2292 326.859 39.7365 326.501 39.6469 325.784 40.0052 325.292 40.05 325.202 40.1396 325.112 40.2292 325.068L40.2292 324.62 37.2281 324.62 35.1229 322.156C34.4958 322.201 33.9583 321.753 33.9135 321.126 33.8687 320.499 34.3167 319.961 34.9437 319.917 35.5708 319.872 36.1083 320.32 36.1531 320.947 36.1531 321.036 36.1531 321.171 36.1531 321.26L37.8552 323.276 40.2292 323.276 40.2292 321.216 42.5135 318.931 41.125 317.498 41.125 309.391C40.6323 309.032 40.5427 308.316 40.901 307.823 41.2594 307.33 41.976 307.241 42.4688 307.599 42.9615 307.957 43.051 308.674 42.6927 309.167 42.6479 309.256 42.5583 309.346 42.4688 309.391L42.4688 310.734 46.0521 310.734 46.0521 313.87C46.5448 314.228 46.6344 314.945 46.276 315.438 45.9177 315.93 45.201 316.02 44.7083 315.661 44.2156 315.303 44.126 314.586 44.4844 314.094 44.5292 314.004 44.6187 313.915 44.7083 313.87L44.7083 312.078 42.4688 312.078 42.4688 316.96 45.6042 320.096C45.649 320.096 45.6937 320.096 45.7385 320.096 46.3656 320.096 46.8583 320.589 46.8583 321.216 46.8583 321.843 46.3656 322.335 45.7385 322.335ZM51.2031 313.288C50.576 313.288 50.0833 312.795 50.0833 312.168 50.0833 312.123 50.0833 312.123 50.0833 312.078L48.2917 310.466 48.2917 307.196C48.7396 307.33 49.1875 307.509 49.6354 307.689L49.6354 309.883 50.9792 311.093C51.0687 311.093 51.1135 311.093 51.2031 311.093 51.8302 311.093 52.3229 311.585 52.3229 312.212 52.3229 312.84 51.8302 313.288 51.2031 313.288Z" fill="#007AAD" fill-rule="nonzero" fill-opacity="1"/></g></g></g></g></svg>