<svg width="44" height="43" xmlns="http://www.w3.org/2000/svg" xmlns:xlink="http://www.w3.org/1999/xlink" overflow="hidden"><defs><clipPath id="clip0"><rect x="457" y="481" width="44" height="43"/></clipPath><clipPath id="clip1"><rect x="458" y="482" width="43" height="42"/></clipPath><clipPath id="clip2"><rect x="458" y="482" width="43" height="42"/></clipPath><clipPath id="clip3"><rect x="458" y="482" width="43" height="42"/></clipPath></defs><g clip-path="url(#clip0)" transform="translate(-457 -481)"><g clip-path="url(#clip1)"><g clip-path="url(#clip2)"><g clip-path="url(#clip3)"><path d="M32.6567 25.4791C31.1523 24.2868 29.4636 23.3477 27.657 22.6988 28.4762 22.4795 29.2603 22.1452 29.9858 21.7061 30.19 21.5769 30.2508 21.3066 30.1215 21.1025 30.1023 21.072 30.0793 21.0441 30.0532 21.0192 30.0396 21.0066 28.6882 19.7067 28.5854 18.2897 28.6362 17.2666 28.7826 16.2505 29.0229 15.2548 29.3905 13.6304 29.617 11.9774 29.6997 10.3141 29.6997 8.17337 29.1257 6.97506 27.7191 6.17881 27.1023 5.82881 26.0531 5.94869 25.5106 6.04362 25.1309 5.53263 24.1168 4.44981 21.9861 3.78656 19.6917 3.15613 17.2402 3.47276 15.1813 4.6655 13.2882 5.8905 12.516 7.79713 12.516 11.2525 12.516 12.9522 12.614 14.4423 12.7006 15.7587 12.8251 16.9077 12.8437 18.0657 12.7562 19.2181 12.6188 19.974 12.2896 20.682 11.8003 21.2743 11.6568 21.4688 11.6982 21.7427 11.8927 21.8861 11.9088 21.898 11.9257 21.9087 11.9433 21.9183 12.6623 22.2918 13.4263 22.5713 14.2166 22.75 12.4564 23.3922 10.811 24.3135 9.34369 25.4787 8.45298 26.2091 7.91823 27.2864 7.875 28.4375L7.875 35.8899 8.06969 36.0211C10.1146 37.3818 15.6516 38.0625 21.1426 38.0625 26.6551 38.0625 32.1239 37.3765 33.9482 36.0063L34.125 35.875 34.125 28.4283C34.0795 27.2806 33.5451 26.2073 32.6567 25.4791ZM27.3459 27.125C27.8292 27.125 28.2209 27.5167 28.2209 28 28.2209 28.4833 27.8292 28.875 27.3459 28.875 26.8627 28.875 26.4709 28.4833 26.4709 28 26.4709 27.5167 26.8627 27.125 27.3459 27.125ZM24.9935 22.5614C25.0443 22.5881 25.0941 22.6166 25.1479 22.6389L25.4542 22.7644C24.0481 23.3667 22.5292 23.6601 21 23.625 19.4703 23.6602 17.9508 23.3665 16.5445 22.7636L16.8507 22.6389 17.0433 22.5479C17.5968 22.2387 17.9391 21.6537 17.9375 21.0197L17.9375 20.2357C19.8531 21.2536 22.1491 21.2536 24.0647 20.2357L24.0647 21.0179C24.0747 21.6618 24.4293 22.251 24.9935 22.5614ZM21 20.125C17.8603 20.1216 15.3159 17.5772 15.3125 14.4375L15.3125 12.6718C17.2113 12.5142 19.0746 12.0653 20.8368 11.3409L21.2883 11.1151C22.4976 10.5898 23.6096 9.86414 24.5774 8.96875 24.6523 9.48325 24.9274 11.2206 25.3387 11.9564 25.6309 12.4899 26.0578 12.9376 26.5768 13.2549L26.6884 13.3311 26.6884 14.4375C26.6847 17.5775 24.14 20.1219 21 20.125ZM14.4375 12.25 14.4375 14.4375C14.4394 16.4978 15.4107 18.4371 17.0594 19.6726L17.0594 21.0197C17.059 21.363 16.8566 21.674 16.5427 21.8133 15.3567 22.3541 13.6168 21.7206 12.8061 21.3605 13.232 20.7589 13.5117 20.0662 13.6229 19.3375 13.7213 18.1264 13.7049 16.9086 13.5739 15.7006 13.4864 14.399 13.391 12.9242 13.391 11.2534 13.391 8.13619 14.0473 6.44088 15.6358 5.41362 17.4841 4.34736 19.6819 4.06384 21.7402 4.62613 24.1557 5.37862 24.9152 6.7235 24.9209 6.734 25.0129 6.90808 25.2099 6.99921 25.4021 6.95669 25.9709 6.82894 26.9299 6.73794 27.2834 6.94006 28.2323 7.47731 28.8203 8.22894 28.8203 10.3119 28.7364 11.9198 28.5153 13.5177 28.1597 15.0881 27.8973 16.1581 27.7465 17.2525 27.7095 18.3536 27.8583 19.4237 28.3257 20.4243 29.0509 21.2253 28.2511 21.6388 26.5877 22.3444 25.4323 21.8028 25.1301 21.6591 24.9375 21.3543 24.9375 21.0197L24.9375 19.6757C26.5882 18.4401 27.5608 16.4994 27.5625 14.4375L27.5577 13.125C27.5592 13.0169 27.5201 12.9122 27.4483 12.8314 27.3321 12.7137 27.2017 12.6109 27.0603 12.5252 26.6577 12.2839 26.3268 11.9395 26.1017 11.5277 25.7659 10.6635 25.5445 9.75909 25.4428 8.8375 25.3707 8.36798 24.9316 8.0458 24.4621 8.1179 24.2895 8.14441 24.1291 8.22281 24.0021 8.34269 23.0801 9.16707 22.0322 9.83863 20.8981 10.332L20.4606 10.5507C18.6842 11.2866 16.7951 11.7133 14.875 11.8125 14.6334 11.8125 14.4375 12.0084 14.4375 12.25ZM26.9062 23.3489 26.9062 26.2828C26.9062 26.2929 26.9115 26.3008 26.9119 26.3104 25.9753 26.549 25.4095 27.5016 25.6481 28.4382 25.8867 29.3748 26.8394 29.9407 27.776 29.7021 28.7126 29.4634 29.2784 28.5107 29.0398 27.5742 28.8816 26.9533 28.3969 26.4685 27.776 26.3104 27.776 26.3008 27.7812 26.2924 27.7812 26.2828L27.7812 23.6954C29.3349 24.2847 30.7879 25.1112 32.0884 26.1454 32.7888 26.7055 33.2125 27.5415 33.25 28.4375L33.25 35.427C29.5312 37.8066 12.8704 37.7961 8.75 35.4126L8.75 28.4467C8.78452 27.5482 9.20697 26.7089 9.90806 26.1459 11.2098 25.1114 12.6639 24.2849 14.2188 23.6959L14.2188 26.2614C12.6177 26.376 11.3769 27.7074 11.375 29.3125L11.375 32.5938C11.3764 33.2029 11.7967 33.731 12.39 33.8691 12.6109 34.1564 13.023 34.2101 13.3103 33.9892 13.5976 33.7683 13.6514 33.3562 13.4304 33.0689 13.2095 32.7817 12.7974 32.7278 12.5101 32.9488 12.5003 32.9563 12.4908 32.9641 12.4814 32.9722 12.3406 32.8981 12.2518 32.7528 12.25 32.5938L12.25 29.3125C12.2514 28.105 13.23 27.1264 14.4375 27.125L14.875 27.125C16.0825 27.1264 17.0611 28.105 17.0625 29.3125L17.0625 32.5938C17.0609 32.7527 16.9722 32.8981 16.8315 32.9722 16.5571 32.7354 16.1427 32.7659 15.9059 33.0402 15.6691 33.3146 15.6996 33.729 15.974 33.9658 16.2484 34.2026 16.6628 34.1722 16.8995 33.8978 16.9076 33.8884 16.9154 33.8789 16.9229 33.8691 17.5161 33.7308 17.9361 33.2028 17.9375 32.5938L17.9375 29.3125C17.9359 27.7072 16.695 26.3756 15.0938 26.2609L15.0938 23.3472 15.5172 23.1875C16.702 24.0008 18.7688 24.5 21 24.5 23.2312 24.5 25.2976 24.0008 26.4823 23.1875Z" fill="#007AAD" fill-rule="nonzero" fill-opacity="1" transform="matrix(1.02381 0 0 1 458 482)"/><path d="M27.7834 28C27.7834 28.2416 27.5876 28.4375 27.3459 28.4375 27.1043 28.4375 26.9084 28.2416 26.9084 28 26.9084 27.7584 27.1043 27.5625 27.3459 27.5625 27.5876 27.5625 27.7834 27.7584 27.7834 28Z" fill="#007AAD" fill-rule="nonzero" fill-opacity="1" transform="matrix(1.02381 0 0 1 458 482)"/></g></g></g></g></svg>