<svg width="51" height="50" xmlns="http://www.w3.org/2000/svg" xmlns:xlink="http://www.w3.org/1999/xlink" overflow="hidden"><defs><clipPath id="clip0"><rect x="17" y="484" width="51" height="50"/></clipPath><clipPath id="clip1"><rect x="18" y="484" width="50" height="50"/></clipPath><clipPath id="clip2"><rect x="18" y="484" width="51" height="50"/></clipPath><clipPath id="clip3"><rect x="18" y="484" width="51" height="50"/></clipPath></defs><g clip-path="url(#clip0)" transform="translate(-17 -484)"><g clip-path="url(#clip1)"><g clip-path="url(#clip2)"><g clip-path="url(#clip3)"><path d="M34.25 510.823C32.2708 511.604 30.4479 512.646 28.7812 513.948 27.6354 514.885 26.9062 516.292 26.8542 517.802L25.9688 525.51C25.8125 526.656 26.3333 527.802 27.2708 528.427 28.2083 529.052 29.1979 529.521 30.2396 529.938L30.7083 529.938 30.7083 527.906C29.9271 527.594 29.1458 527.177 28.4167 526.708 28.1042 526.5 27.9479 526.135 28 525.771L28.9375 517.958 28.9375 517.854C28.9896 516.917 29.4062 516.083 30.1354 515.51 31.5417 514.312 33.5729 513.219 36.3854 512.177 37.9479 513.115 40.3438 513.688 43 513.688 45.6562 513.688 48.0521 513.115 49.6146 512.177 52.4792 513.219 54.4583 514.312 55.8646 515.51 56.5937 516.083 57.0104 516.969 57.0625 517.854L58 525.719C58.0521 526.083 57.8958 526.448 57.5833 526.656 56.8542 527.125 56.125 527.542 55.2917 527.854L55.2917 529.885 55.7604 529.885C56.8021 529.521 57.7917 529 58.7292 528.375 59.6667 527.698 60.1875 526.604 60.0312 525.458L59.1458 517.802C59.0938 516.292 58.3646 514.885 57.2188 513.948 55.5521 512.646 53.7292 511.552 51.75 510.823 51.75 508.167 51.8542 500.875 51.8542 497.906 51.8542 497.073 51.75 496.24 51.5417 495.406 50.8646 492.906 49.1458 490.823 46.8542 489.625 46.6458 489.521 46.3333 489.521 46.1771 489.677L45.7083 490.042 45.1875 489.312C45.0312 489.052 44.7708 488.896 44.5104 488.844 43.9896 488.74 43.5208 488.688 43 488.688 40.9167 488.688 38.8333 489.469 37.2708 490.823 35.2917 492.594 34.1979 495.094 34.25 497.75L34.25 510.823ZM36.8542 502.333 37.2188 498.062 48.7292 498.062 49.0938 502.333C48.4688 505.719 45.2396 507.958 41.8021 507.333 39.3021 506.865 37.3229 504.885 36.8542 502.333ZM38.9375 511.031C39.5104 510.562 39.875 509.781 39.875 509L39.875 508.896C41.8542 509.729 44.1458 509.729 46.125 508.896L46.125 509C46.125 509.781 46.4896 510.51 47.0625 511.031 45.7604 511.448 44.3542 511.604 43 511.604 41.6458 511.604 40.2396 511.448 38.9375 511.031Z" fill="#007AAD" fill-rule="nonzero" fill-opacity="1"/><path d="M54.25 518.01C54.25 517.281 53.6771 516.708 52.9479 516.708L52.9479 516.708 33.1042 516.708C32.375 516.708 31.8021 517.281 31.8021 518.01L31.8021 530.979 27.8438 530.979 27.8438 531.656C27.8438 532.385 28.4167 532.958 29.1458 532.958L56.9062 532.958C57.6354 532.958 58.2083 532.385 58.2083 531.656L58.2083 530.979 54.25 530.979 54.25 518.01ZM40.2917 526.604 39.5625 527.333 36.6458 524.417 39.5625 521.5 40.2917 522.229 38.1042 524.417 40.2917 526.604ZM42.2708 527.698 41.3333 527.281 43.7812 521.396 44.7188 521.812 42.2708 527.698ZM46.4375 527.385 45.7083 526.656 47.8958 524.469 45.7083 522.281 46.4375 521.552 49.3542 524.469 46.4375 527.385Z" fill="#007AAD" fill-rule="nonzero" fill-opacity="1"/></g></g></g></g></svg>