<svg width="52" height="53" xmlns="http://www.w3.org/2000/svg" xmlns:xlink="http://www.w3.org/1999/xlink" overflow="hidden"><defs><clipPath id="clip0"><rect x="453" y="301" width="52" height="53"/></clipPath><clipPath id="clip1"><rect x="454" y="302" width="51" height="52"/></clipPath><clipPath id="clip2"><rect x="454" y="302" width="51" height="52"/></clipPath><clipPath id="clip3"><rect x="454" y="302" width="51" height="52"/></clipPath></defs><g clip-path="url(#clip0)" transform="translate(-453 -301)"><g clip-path="url(#clip1)"><g clip-path="url(#clip2)"><g clip-path="url(#clip3)"><path d="M31.875 20.1875 31.875 18.5938 25.5 12.2188 19.125 18.5938 19.125 20.1875 3.71875 20.1875 3.71875 22.3125 4.78125 22.3125 4.78125 42.5 46.2188 42.5 46.2188 22.3125 47.2812 22.3125 47.2812 20.1875ZM10.0938 38.25 6.90625 38.25 6.90625 35.0625 10.0938 35.0625ZM10.0938 32.9375 6.90625 32.9375 6.90625 29.75 10.0938 29.75ZM10.0938 27.625 6.90625 27.625 6.90625 24.4375 10.0938 24.4375ZM15.4062 38.25 12.2188 38.25 12.2188 35.0625 15.4062 35.0625ZM15.4062 32.9375 12.2188 32.9375 12.2188 29.75 15.4062 29.75ZM15.4062 27.625 12.2188 27.625 12.2188 24.4375 15.4062 24.4375ZM20.7188 38.25 17.5312 38.25 17.5312 35.0625 20.7188 35.0625ZM20.7188 32.9375 17.5312 32.9375 17.5312 29.75 20.7188 29.75ZM20.7188 27.625 17.5312 27.625 17.5312 24.4375 20.7188 24.4375ZM23.375 40.375 23.375 32.9375 27.625 32.9375 27.625 40.375ZM29.2188 22.2488 28.2253 23.97 26.4934 22.9659 26.4934 24.9688 24.5066 24.9688 24.5066 22.9659 22.7747 23.97 21.7812 22.2488 23.5184 21.25 21.7812 20.2512 22.7747 18.53 24.5066 19.5341 24.5066 17.5312 26.4934 17.5312 26.4934 19.5341 28.2253 18.53 29.2188 20.2512 27.4816 21.25ZM33.4688 38.25 30.2812 38.25 30.2812 35.0625 33.4688 35.0625ZM33.4688 32.9375 30.2812 32.9375 30.2812 29.75 33.4688 29.75ZM33.4688 27.625 30.2812 27.625 30.2812 24.4375 33.4688 24.4375ZM38.7812 38.25 35.5938 38.25 35.5938 35.0625 38.7812 35.0625ZM38.7812 32.9375 35.5938 32.9375 35.5938 29.75 38.7812 29.75ZM38.7812 27.625 35.5938 27.625 35.5938 24.4375 38.7812 24.4375ZM44.0938 38.25 40.9062 38.25 40.9062 35.0625 44.0938 35.0625ZM44.0938 32.9375 40.9062 32.9375 40.9062 29.75 44.0938 29.75ZM44.0938 27.625 40.9062 27.625 40.9062 24.4375 44.0938 24.4375Z" fill="#007AAD" fill-rule="nonzero" fill-opacity="1" transform="matrix(1 0 0 1.01961 454 302)"/><path d="M25.5 9.47219 33.2509 17.2178 34.7491 15.7197 25.5 6.46531 16.2509 15.7197 17.7491 17.2178 25.5 9.47219Z" fill="#007AAD" fill-rule="nonzero" fill-opacity="1" transform="matrix(1 0 0 1.01961 454 302)"/></g></g></g></g></svg>